<svg width="500" height="500" viewBox="0 0 500 500" fill="none" xmlns="http://www.w3.org/2000/svg">
<path d="M250 500C388.071 500 500 388.071 500 250C500 111.929 388.071 0 250 0C111.929 0 0 111.929 0 250C0 388.071 111.929 500 250 500Z" fill="white" fill-opacity="0.75"/>
<path fill-rule="evenodd" clip-rule="evenodd" d="M98.1274 250.127L69.4142 221.414C68.6332 220.633 68.6332 219.367 69.4142 218.586L81.5858 206.414C82.3668 205.633 83.6332 205.633 84.4142 206.414L114.542 236.542L126.586 248.586C127.172 249.172 127.318 250.03 127.025 250.753C126.94 250.963 126.817 251.162 126.657 251.34C126.634 251.365 126.61 251.39 126.586 251.414L113 265L84.2868 293.713C83.5057 294.494 82.2394 294.494 81.4584 293.713L69.4142 281.669C68.6332 280.888 68.6332 279.622 69.4142 278.841L98.1274 250.127Z" fill="black"/>
<path fill-rule="evenodd" clip-rule="evenodd" d="M431.713 281.542C432.494 280.761 432.494 279.494 431.713 278.713L403 250L431.713 221.287C432.494 220.506 432.494 219.239 431.713 218.458L419.669 206.414C418.888 205.633 417.622 205.633 416.841 206.414L388.127 235.127L374.542 248.713C373.761 249.494 373.761 250.761 374.542 251.542L386.586 263.586L416.713 293.713C417.494 294.494 418.761 294.494 419.542 293.713L431.713 281.542Z" fill="black"/>
</svg>
